<svg version="1.0" xmlns="http://www.w3.org/2000/svg"
 width="1066.000000pt" height="1080.000000pt" viewBox="0 0 1066.000000 1080.000000"
 preserveAspectRatio="xMidYMid meet">

<g transform="translate(0.000000,1080.000000) scale(0.100000,-0.100000)"
fill="#ffffff" stroke="none">
<path d="M2635 9670 c-11 -5 -48 -9 -83 -9 -35 -1 -73 -6 -84 -12 -11 -6 -46
-15 -77 -21 -31 -5 -71 -12 -89 -15 -18 -3 -35 -9 -38 -14 -3 -5 -16 -9 -29
-9 -13 0 -27 -4 -30 -10 -3 -5 -19 -10 -36 -10 -16 0 -29 -4 -29 -10 0 -5 -7
-10 -14 -10 -8 0 -48 -15 -88 -33 -40 -18 -88 -40 -105 -48 -18 -7 -33 -17
-33 -21 0 -5 -9 -8 -19 -8 -11 0 -21 -4 -23 -9 -3 -7 -36 -31 -107 -76 -8 -5
-20 -14 -26 -20 -7 -5 -24 -19 -40 -30 -110 -78 -328 -307 -374 -393 -6 -11
-17 -27 -23 -34 -12 -13 -25 -33 -52 -83 -6 -11 -14 -22 -17 -25 -11 -10 -79
-152 -79 -166 0 -8 -4 -14 -10 -14 -5 0 -10 -11 -10 -24 0 -14 -5 -28 -10 -31
-6 -3 -10 -17 -10 -30 0 -13 -4 -26 -9 -29 -5 -3 -11 -18 -14 -33 -3 -16 -12
-53 -22 -83 -20 -69 -33 -139 -47 -255 -13 -102 -16 -5532 -3 -5695 4 -52 11
-99 16 -104 5 -6 9 -21 9 -34 0 -35 48 -211 62 -226 4 -6 8 -20 8 -32 0 -13 5
-26 10 -29 6 -3 10 -15 10 -26 0 -10 4 -27 9 -37 5 -9 23 -46 40 -82 30 -63
61 -120 71 -130 3 -3 12 -18 20 -35 8 -16 17 -32 21 -35 3 -3 27 -36 54 -75
81 -114 238 -276 350 -360 22 -16 49 -37 59 -47 11 -10 26 -18 33 -18 7 0 13
-4 13 -8 0 -5 16 -14 35 -22 19 -8 35 -17 35 -22 0 -4 5 -8 10 -8 6 0 28 -11
50 -25 22 -14 46 -25 55 -25 8 0 15 -4 15 -10 0 -5 9 -10 20 -10 11 0 20 -4
20 -10 0 -5 7 -10 15 -10 8 0 23 -4 33 -9 35 -18 68 -31 122 -47 30 -9 59 -21
65 -25 5 -5 23 -9 40 -9 17 0 35 -4 40 -9 10 -9 28 -12 190 -33 107 -14 5600
-17 5753 -4 51 5 95 13 98 17 3 5 23 9 44 9 21 0 42 5 45 10 3 6 21 10 40 10
19 0 36 4 39 9 3 5 23 12 43 16 21 4 43 10 48 14 6 4 30 14 55 21 25 8 60 22
78 32 18 10 39 18 47 18 8 0 15 4 15 9 0 5 8 11 18 14 40 13 179 97 260 157
94 70 256 225 318 305 21 27 46 58 54 67 9 9 38 54 65 100 27 46 51 85 55 88
9 8 55 106 90 195 17 44 36 88 41 97 5 10 9 29 9 42 0 14 4 27 9 30 5 3 11 20
14 38 4 18 11 58 17 88 35 185 35 195 35 3020 0 2830 0 2825 -35 3010 -6 30
-14 72 -17 93 -3 20 -9 40 -14 43 -5 3 -9 18 -9 35 0 16 -4 29 -10 29 -5 0
-10 8 -10 18 0 17 -17 60 -41 104 -5 10 -9 25 -9 33 0 8 -4 15 -10 15 -5 0
-10 6 -10 14 0 19 -63 136 -111 207 -21 32 -39 62 -39 68 0 5 -3 11 -8 13 -4
2 -25 26 -47 53 -52 65 -215 229 -285 287 -128 104 -257 181 -425 253 -22 9
-48 21 -57 26 -10 5 -27 9 -37 9 -11 0 -23 5 -26 10 -3 6 -19 10 -34 10 -15 0
-31 4 -36 8 -6 5 -37 14 -70 21 -33 7 -80 18 -105 24 -25 6 -76 15 -115 20
-89 12 -5602 19 -5630 7z m620 -1124 c41 -10 76 -28 99 -48 11 -10 23 -18 26
-18 8 0 72 -94 85 -125 5 -11 11 -210 14 -442 5 -318 9 -425 19 -435 6 -6 12
-18 12 -26 0 -16 50 -68 95 -98 48 -32 122 -45 175 -29 75 21 90 27 90 34 0 4
13 14 28 23 28 17 58 69 81 139 7 24 11 162 11 430 l0 395 35 58 c19 31 45 66
57 76 29 24 94 56 133 66 39 10 1191 10 1230 0 87 -22 167 -86 198 -157 36
-86 37 -105 37 -1348 0 -1095 -2 -1221 -16 -1235 -13 -14 -53 -16 -280 -16
-164 0 -273 4 -285 10 -19 10 -19 33 -19 1085 l0 1075 -255 0 -255 0 0 -269
c0 -169 -4 -272 -10 -276 -5 -3 -10 -21 -10 -40 0 -19 -4 -37 -10 -40 -5 -3
-10 -15 -10 -26 0 -10 -4 -27 -9 -37 -5 -9 -22 -44 -38 -76 -40 -84 -47 -96
-55 -96 -5 0 -8 -4 -8 -10 0 -11 -23 -40 -89 -112 -45 -50 -218 -168 -245
-168 -9 0 -16 -4 -16 -10 0 -5 -9 -10 -19 -10 -11 0 -23 -4 -26 -10 -3 -5 -16
-10 -29 -10 -12 0 -26 -4 -31 -9 -6 -5 -30 -12 -55 -15 -25 -3 -74 -9 -110
-14 -36 -5 -96 -5 -135 0 -38 5 -90 11 -115 14 -25 3 -49 10 -55 15 -5 5 -17
9 -27 9 -9 0 -33 9 -53 20 -20 11 -40 20 -46 20 -6 0 -49 25 -95 55 -79 51
-140 105 -192 169 -42 50 -112 164 -112 180 0 9 -4 16 -10 16 -5 0 -10 9 -10
20 0 11 -4 28 -9 38 -17 34 -31 89 -31 125 0 20 -4 39 -10 42 -6 4 -10 100
-10 256 l0 249 -255 0 -255 0 0 -1245 c0 -701 4 -1253 9 -1263 5 -9 14 -29 21
-43 19 -42 76 -95 125 -118 l45 -21 2771 0 c2466 0 2783 -2 2878 -16 58 -8
110 -20 116 -25 5 -5 19 -9 31 -9 13 0 26 -4 29 -10 3 -5 17 -10 31 -10 13 0
24 -4 24 -10 0 -5 9 -10 19 -10 11 0 21 -3 23 -7 2 -5 20 -16 40 -27 20 -10
46 -27 57 -37 11 -11 24 -19 29 -19 24 0 202 -198 202 -225 0 -3 8 -14 18 -25
9 -10 30 -52 45 -92 16 -40 33 -82 37 -93 5 -11 12 -38 16 -60 12 -65 16
-2357 4 -2369 -5 -5 -10 -18 -10 -28 0 -23 -86 -108 -139 -135 l-42 -23 -634
0 c-369 -1 -642 3 -652 8 -10 6 -30 16 -46 23 -40 19 -102 85 -120 127 -33 84
-37 132 -37 512 0 366 -1 381 -21 417 -58 103 -169 157 -273 132 -83 -20 -166
-78 -166 -116 0 -7 -4 -13 -10 -13 -5 0 -10 -11 -10 -24 0 -14 -5 -28 -10 -31
-6 -4 -10 -153 -10 -415 0 -225 -4 -411 -9 -414 -4 -3 -11 -19 -14 -35 -8 -36
-117 -151 -144 -151 -11 0 -24 -5 -29 -10 -14 -14 -1284 -14 -1298 0 -6 6 -17
10 -26 10 -22 0 -97 65 -124 109 -13 20 -27 52 -31 71 -5 19 -10 574 -12 1233
l-3 1197 -1220 0 c-1180 0 -1398 5 -1424 31 -6 5 -22 9 -37 9 -15 0 -31 5 -34
10 -3 6 -15 10 -25 10 -23 0 -113 49 -194 105 -68 48 -133 109 -174 164 -15
20 -29 38 -32 41 -5 5 -17 25 -49 84 -35 64 -71 158 -71 186 0 16 -4 32 -10
35 -7 4 -10 516 -10 1505 l0 1498 23 43 c42 81 128 149 186 149 17 0 33 5 36
10 8 12 1163 8 1210 -4z"/>
<path d="M5680 3645 l0 -1025 249 0 248 0 5 281 c4 190 9 284 17 292 6 6 11
26 11 43 0 18 5 36 10 39 6 3 10 17 10 31 0 13 5 24 10 24 6 0 10 7 10 15 0
40 91 175 173 257 110 109 199 168 297 197 25 7 54 17 65 21 20 8 40 13 125
30 61 12 185 11 240 -1 25 -6 60 -13 78 -16 18 -3 35 -9 38 -14 3 -5 18 -9 35
-9 16 0 29 -3 29 -8 0 -4 18 -13 40 -20 72 -22 208 -122 279 -206 14 -15 30
-33 36 -40 42 -43 125 -194 125 -228 0 -10 5 -18 10 -18 6 0 10 -15 10 -33 0
-18 4 -37 9 -42 16 -17 23 -111 27 -357 l5 -238 254 0 255 0 0 920 c0 513 -4
928 -9 938 -5 9 -15 30 -22 46 -19 41 -67 90 -114 117 l-40 24 -1257 3 -1258
2 0 -1025z"/>
</g>
</svg>
